<svg width="26" height="30" viewBox="0 0 26 30" fill="none" xmlns="http://www.w3.org/2000/svg">
<path fill-rule="evenodd" clip-rule="evenodd" d="M2.72181 10.7562C3.38327 11.5912 4.5553 12.1455 5.88951 12.1455C7.95433 12.1455 9.62701 10.8197 9.62701 9.18367C9.62701 7.54763 7.95433 6.22188 5.88951 6.22188C4.73722 6.45741 4.2676 6.73243 4.0095 6.05686C5.02917 2.97521 6.67089 2.27285 9.48599 2.27285C13.2249 2.27285 14.9865 5.67045 14.9865 10.3827C13.9527 21.196 3.30414 26.6484 1 28.3183C1.32298 29.0616 1.30605 29.0348 1.30605 28.9995C12.0712 24.1097 20.0642 17.4034 20.0642 10.8058C20.0642 5.56342 16.7413 0.845611 9.4159 1.00387C5.01553 1.00387 -0.245357 5.89367 2.72245 10.7565L2.72181 10.7562ZM21.333 5.65787C21.333 6.67051 22.1539 7.49136 23.1665 7.49136C24.1791 7.49136 25 6.67051 25 5.65787C25 4.64523 24.1791 3.82437 23.1665 3.82437C22.1539 3.82437 21.333 4.64523 21.333 5.65787ZM21.333 13.4149C21.333 14.4275 22.1539 15.2484 23.1665 15.2484C24.1791 15.2484 25 14.4275 25 13.4149C25 12.4023 24.1791 11.5814 23.1665 11.5814C22.1539 11.5814 21.333 12.4023 21.333 13.4149Z" fill="#15803D" stroke="#15803D" stroke-width="0.0567242"/>
</svg>
