<svg width="22" height="59" viewBox="0 0 22 59" fill="none" xmlns="http://www.w3.org/2000/svg">
<path d="M13.3744 1.00046C11.1995 0.943991 8.65601 6.13721 8.74057 10.7686C8.76021 12.1792 9.20544 15.0402 9.85504 18.6332C5.75823 22.8735 1.00098 27.2252 1.00098 32.935C0.935658 38.1676 4.1336 44.834 11.7209 44.7698C12.8855 44.7618 13.9334 44.6176 14.8644 44.3691C15.558 48.1722 16.0193 51.1738 16.0165 52.5603C16.0409 58.0265 8.85919 58.5675 8.51495 55.4257C10.0286 55.3736 11.2328 54.1713 11.2328 52.6846C11.2328 51.1657 9.97527 49.9274 8.41477 49.9274C7.55677 49.9274 6.79215 50.3041 6.27358 50.8932C6.26156 50.9053 6.24754 50.9173 6.23591 50.9293C6.1189 51.0535 6.02031 51.2018 5.92293 51.3701C5.60314 51.9111 5.39555 52.6886 5.38433 53.7986C5.38433 58.3751 16.9558 61.3206 16.9558 52.2958C16.9739 51.0816 16.4517 47.9998 15.6911 44.1166C23.9476 41.1311 21.8734 28.8723 14.2761 28.8146C13.687 28.8206 13.1191 28.8891 12.5729 29.0278C12.1401 26.9451 11.7225 24.9237 11.3578 23.0663C14.2428 20.2326 16.7619 16.5646 16.7054 9.80443C16.7142 4.9498 15.0968 1.05696 13.3744 1.00046ZM13.8877 5.69679C14.872 5.60181 15.6534 6.51551 15.6534 8.52685C15.7332 11.9813 13.3131 14.9981 10.4313 18.0321C10.1556 16.3702 9.97487 15.0237 9.95523 14.225C10.037 8.82861 12.2471 5.85508 13.8877 5.69679ZM10.7944 23.6049C11.1458 25.4143 11.5253 27.3206 11.9089 29.2406C6.88031 31.0295 4.46703 38.0385 11.5959 41.1752C7.2506 37.4759 9.38938 33.0969 12.5224 32.3339C13.3103 36.2676 14.0797 40.1493 14.7017 43.5035C13.8573 43.8 12.8719 43.9724 11.7209 43.9804C8.84316 43.9804 3.09247 42.149 3.09247 35.2141C3.09247 29.4057 7.11876 27.0453 10.7944 23.6049ZM13.2365 32.2085C13.362 32.2009 13.4978 32.2041 13.6245 32.2085C18.8594 32.2085 20.8339 40.5219 15.5031 43.1789C14.8399 39.8447 14.0356 36.0216 13.2365 32.2085Z" fill="#15803D" stroke="#15803D" stroke-width="0.400745"/>
</svg>
